<svg xmlns="http://www.w3.org/2000/svg" class="h-24 w-24" viewBox="0 0 24 24" fill="none" stroke="currentColor" stroke-width="1.5">
        <circle cx="12" cy="12" r="10" />
        <path d="M14.5 9a2.5 2.5 0 1 0 0-5 2.5 2.5 0 0 0 0 5z" fill="white"/>
        <path d="M7.5 19.5A2.5 2.5 0 1 0 7.5 14.5 2.5 2.5 0 0 0 7.5 19.5z" fill="white"/>
        <path d="M16.5 19.5A2.5 2.5 0 1 0 16.5 14.5 2.5 2.5 0 0 0 16.5 19.5z" fill="white"/>
        <path d="M8.5 9L7 12M15.5 9L17 12M7.5 16.5L16.5 16.5" stroke="white" stroke-linecap="round"/>
    </svg>